<?xml version="1.0" standalone="no"?>
<!DOCTYPE svg PUBLIC "-//W3C//DTD SVG 20010904//EN"
 "http://www.w3.org/TR/2001/REC-SVG-20010904/DTD/svg10.dtd">
<svg version="1.0" xmlns="http://www.w3.org/2000/svg"
 width="500.000000pt" height="500.000000pt" viewBox="0 0 500.000000 500.000000"
 preserveAspectRatio="xMidYMid meet">

<g transform="translate(0.000000,500.000000) scale(0.100000,-0.100000)"
fill="#000000" stroke="none">
<path d="M2300 4055 c-394 -58 -786 -288 -1012 -595 -221 -299 -317 -585 -318
-937 0 -333 131 -680 363 -960 120 -146 333 -310 508 -392 102 -48 284 -104
405 -125 136 -24 423 -22 555 5 141 28 327 91 424 144 422 231 688 588 786
1058 27 128 29 383 5 522 -47 269 -182 553 -370 777 -210 252 -588 457 -926
503 -126 17 -303 17 -420 0z m420 -93 c46 -24 130 -59 189 -79 316 -106 529
-258 722 -518 137 -184 221 -379 260 -605 19 -108 17 -394 -4 -498 -65 -324
-263 -644 -516 -833 -167 -124 -363 -216 -536 -250 -218 -43 -317 -48 -491
-24 -199 28 -328 66 -483 142 -371 182 -641 525 -733 928 -26 116 -36 383 -18
505 25 178 92 384 152 472 10 14 18 29 18 33 0 22 210 287 262 330 193 160
363 257 543 311 44 14 121 45 170 69 115 57 146 64 276 62 105 -2 108 -3 189
-45z"/>
<path d="M2441 3878 c-76 -12 -129 -38 -181 -89 -72 -70 -94 -125 -98 -248 -7
-163 22 -259 105 -351 122 -136 332 -147 464 -23 70 65 111 150 112 230 1 57
3 64 23 69 33 8 52 34 59 79 8 57 -11 88 -62 99 -36 7 -43 14 -62 56 -41 90
-158 172 -261 182 -25 3 -69 1 -99 -4z m-2 -392 c49 -34 133 -56 219 -56 37 0
62 -4 62 -11 0 -65 -61 -164 -121 -194 -60 -31 -173 -12 -227 38 -35 33 -69
96 -77 143 -6 38 -3 47 29 89 20 25 36 51 36 57 0 6 9 0 19 -14 11 -13 38 -37
60 -52z"/>
<path d="M2114 3190 c-101 -15 -206 -96 -257 -197 -37 -72 -46 -162 -38 -398
7 -222 15 -261 61 -285 13 -7 20 -21 20 -40 0 -30 0 -30 -58 -30 -171 0 -292
-103 -292 -248 0 -138 40 -190 240 -312 22 -13 40 -28 40 -32 0 -4 -47 -8
-105 -8 -92 0 -108 -3 -125 -20 -26 -26 -25 -51 1 -84 l20 -26 889 0 889 0 20
26 c27 35 27 69 -1 88 -17 12 -49 16 -133 16 l-110 1 36 32 c20 17 63 47 95
65 90 50 154 151 154 242 0 51 -26 126 -57 169 -35 46 -119 83 -205 89 l-68 5
0 31 c0 19 7 36 18 43 46 28 52 67 52 315 0 260 -8 312 -61 397 -40 66 -99
116 -166 141 -70 26 -120 27 -128 1 -10 -32 -106 -114 -169 -144 -105 -51
-240 -46 -356 13 -31 16 -94 74 -147 136 -15 17 -25 20 -59 14z m863 -472 l23
-22 -2 -254 -3 -255 -26 -19 c-25 -19 -44 -20 -454 -19 -386 2 -429 3 -450 19
-42 30 -45 53 -45 285 1 217 1 223 24 248 12 14 31 31 41 37 13 7 157 9 444 6
421 -4 424 -4 448 -26z m-992 -645 c34 -13 111 -16 510 -18 429 -3 505 0 573
20 34 11 28 -21 -12 -61 l-34 -34 -504 0 -504 0 -42 36 c-53 45 -71 74 -45 74
10 -1 36 -8 58 -17z"/>
<path d="M2432 2502 c-52 -49 -54 -104 -7 -160 47 -56 133 -50 180 12 27 36
31 66 14 114 -15 42 -49 62 -108 62 -40 0 -54 -5 -79 -28z"/>
</g>
</svg>
